PathFileType	4	(X/Y/Z)	/Users/itak/Documents/Research/Walk-IL/dataset/trc/00116_00007.trc
DataRate	CameraRate	NumFrames	NumMarkers	Units	OrigDataRate	OrigDataStartFrame	OrigNumFrames
100.000000	100.000000	4	53	mm	100.000000	201	538
Frame#	Time	RPSI			LPSI			L3			STRN			T10			C7			CLAV			RBAK			LBAK			LSHO			LUPA			LAEL			LAOL			LWTS			LWPS			LFRA			LIFD			LHPS			LHTS			RSHO			RUPA			RAEL			RAOL			RWTS			RWPS			RFRA			RIFD			RHTS			RHPS			RBHD			LFHD			RFHD			LBHD			LHIP			RHIP			RASI			LASI			LKNE			LTHI			LANK			LTIP			LTOE			LMT1			LMT5			LHEE			RKNE			RTHI			RANK			RTIP			RTOE			RMT1			RMT5			RHEE			
		X1	Y1	Z1	X2	Y2	Z2	X3	Y3	Z3	X4	Y4	Z4	X5	Y5	Z5	X6	Y6	Z6	X7	Y7	Z7	X8	Y8	Z8	X9	Y9	Z9	X10	Y10	Z10	X11	Y11	Z11	X12	Y12	Z12	X13	Y13	Z13	X14	Y14	Z14	X15	Y15	Z15	X16	Y16	Z16	X17	Y17	Z17	X18	Y18	Z18	X19	Y19	Z19	X20	Y20	Z20	X21	Y21	Z21	X22	Y22	Z22	X23	Y23	Z23	X24	Y24	Z24	X25	Y25	Z25	X26	Y26	Z26	X27	Y27	Z27	X28	Y28	Z28	X29	Y29	Z29	X30	Y30	Z30	X31	Y31	Z31	X32	Y32	Z32	X33	Y33	Z33	X34	Y34	Z34	X35	Y35	Z35	X36	Y36	Z36	X37	Y37	Z37	X38	Y38	Z38	X39	Y39	Z39	X40	Y40	Z40	X41	Y41	Z41	X42	Y42	Z42	X43	Y43	Z43	X44	Y44	Z44	X45	Y45	Z45	X46	Y46	Z46	X47	Y47	Z47	X48	Y48	Z48	X49	Y49	Z49	X50	Y50	Z50	X51	Y51	Z51	X52	Y52	Z52	X53	Y53	Z53	

202	2.01	193.3560485839844	1105.820922851562	-267.3420715332031	199.5247802734375	1109.146728515625	-403.3938598632812	190.6971282958984	1149.043212890625	-339.1602172851562	426.8012084960938	1342.27001953125	-329.5447387695312	169.0768890380859	1303.662353515625	-343.4178161621094	223.9441680908203	1592.291625976562	-363.4930419921875	400.283935546875	1479.954223632812	-337.6244201660156	156.6591491699219	1414.9296875	-272.9528503417969	224.3326721191406	1569.526245117188	-465.1537780761719	316.9198608398438	1549.692016601562	-523.6231079101562	304.8945922851562	1416.105224609375	-589.8496704101562	333.4863891601562	1197.625	-603.5413208007812	261.7518310546875	1181.677124023438	-555.3330688476562	456.4666748046875	957.0975952148438	-538.7723388671875	381.8455810546875	918.8800048828125	-572.8563232421875	361.4697265625	1083.80224609375	-600.9888305664062	487.6536560058594	766.39208984375	-504.7840576171875	419.4762878417969	847.925537109375	-566.5506591796875	484.7579040527344	871.1307983398438	-544.7294311523438	266.2836303710938	1578.290161132812	-176.6047973632812	245.1930999755859	1506.945678710938	-111.3086318969727	234.3248748779297	1212.337280273438	-80.99397277832031	232.7737579345703	1208.082885742188	-177.4381408691406	394.9922790527344	981.573486328125	-78.02783203125	321.2051086425781	958.6383666992188	-51.34599304199219	261.1882934570312	1140.508666992188	-62.26581573486328	439.2659606933594	790.3272094726562	-85.77625274658203	434.0240173339844	877.1982421875	-66.00646209716797	367.0794372558594	863.6025390625	-40.42855834960938	247.5206298828125	1748.623291015625	-282.2997131347656	396.4837341308594	1835.790283203125	-419.8501281738281	396.0005493164062	1845.471313476562	-290.5852355957031	237.3288116455078	1741.6220703125	-417.5458068847656	299.9245300292969	1020.341003417969	-507.8082275390625	319.1093139648438	1015.599853515625	-143.28857421875	399.2604675292969	1087.452392578125	-195.8539733886719	403.5966186523438	1084.949829101562	-460.5152587890625	367.7102966308594	510.2438659667969	-470.5472717285156	337.0706481933594	660.0817260742188	-498.9128723144531	11.77681255340576	106.948356628418	-491.3385314941406	160.1069641113281	328.5616149902344	-509.2979125976562	202.4185028076172	34.14690399169922	-398.5655822753906	131.1670837402344	57.74937057495117	-380.0384521484375	114.1989974975586	39.30777359008789	-493.0505065917969	-49.20441055297852	156.7595062255859	-441.0177917480469	442.0263366699219	541.5692138671875	-173.9590148925781	382.1834106445312	812.5206909179688	-143.1275177001953	473.4466552734375	27.11128234863281	-200.2759552001953	453.2503662109375	407.7901916503906	-163.6873931884766	706.1664428710938	36.70413970947266	-258.8081359863281	643.916259765625	32.08216094970703	-296.8931884765625	608.3269653320312	37.83502960205078	-179.6797943115234	416.0233764648438	31.67370986938477	-249.50830078125	
203	2.02	183.9007110595703	1104.303344726562	-269.3392639160156	190.7491607666016	1107.759033203125	-405.413330078125	181.46630859375	1147.73681640625	-341.3817443847656	418.1957702636719	1340.376831054688	-331.1256408691406	160.489013671875	1302.6337890625	-346.1131286621094	216.5943298339844	1591.08544921875	-366.2284851074219	392.3922119140625	1478.335327148438	-339.6473083496094	148.4113464355469	1413.93994140625	-275.8893737792969	217.3571929931641	1568.306762695312	-467.9259338378906	310.1885681152344	1548.199462890625	-526.05322265625	298.2293395996094	1414.540283203125	-592.2203979492188	327.1057434082031	1195.998168945312	-605.5480346679688	255.0947570800781	1180.032104492188	-557.78515625	450.1236572265625	955.8384399414062	-539.6761474609375	375.8294372558594	917.4193115234375	-574.1587524414062	355.2640075683594	1082.22314453125	-602.6516723632812	481.5775756835938	765.2470092773438	-505.2577819824219	413.5731506347656	846.5537109375	-567.5128784179688	478.6320495605469	869.8878173828125	-545.37158203125	258.1222229003906	1577.035400390625	-179.1678161621094	236.6890869140625	1505.697509765625	-113.9996566772461	225.158203125	1211.13427734375	-83.59326934814453	224.2375640869141	1206.78759765625	-180.0421752929688	385.6605834960938	980.3177490234375	-79.426025390625	311.7213745117188	957.4464721679688	-53.09633255004883	251.8414306640625	1139.3046875	-64.6268310546875	429.84912109375	789.03564453125	-86.88543701171875	424.5865478515625	875.9326782226562	-67.16227722167969	357.508056640625	862.3853759765625	-41.92352294921875	240.0703125	1747.114990234375	-284.7157897949219	389.7379150390625	1834.237670898438	-421.8221435546875	388.8760375976562	1843.902954101562	-292.5671691894531	230.4592895507812	1740.24609375	-420.0147094726562	291.3226013183594	1018.855163574219	-509.5096435546875	309.3638610839844	1014.02783203125	-144.8195037841797	389.5746154785156	1085.985229492188	-197.3615417480469	395.1394958496094	1083.171142578125	-462.0437927246094	354.8403015136719	508.6617431640625	-469.0339050292969	325.8838806152344	658.3312377929688	-498.6747741699219	6.590316772460938	99.98009490966797	-490.3239440917969	150.6105651855469	322.9786376953125	-508.6183776855469	201.1832275390625	34.89798355102539	-397.8660583496094	128.0871734619141	55.46018218994141	-379.1608581542969	112.1951446533203	37.74850845336914	-492.5023193359375	-56.64491653442383	147.2042999267578	-440.2744445800781	436.1543273925781	541.3541870117188	-174.0763702392578	373.8829040527344	811.5872192382812	-144.0684661865234	473.4607238769531	26.99016952514648	-199.9390411376953	448.3785400390625	407.8307495117188	-163.4439697265625	705.9581298828125	36.92911529541016	-258.3458557128906	643.9269409179688	32.95891952514648	-296.5033264160156	608.3762817382812	37.66115570068359	-179.2873992919922	416.154052734375	31.78942680358887	-249.2326812744141	
204	2.03	174.1840515136719	1102.812744140625	-271.4018859863281	181.8032989501953	1106.465576171875	-407.4762573242188	172.0004119873047	1146.490356445312	-343.6585998535156	409.4652709960938	1338.549560546875	-332.7277526855469	151.7675628662109	1301.696411132812	-348.840087890625	209.2127990722656	1589.956909179688	-368.9934997558594	384.4140930175781	1476.759521484375	-341.6860046386719	140.0662536621094	1413.044189453125	-278.8652038574219	210.3492431640625	1567.166625976562	-470.7304077148438	303.4164733886719	1546.751342773438	-528.5040283203125	291.5067138671875	1413.030517578125	-594.6315307617188	320.6358947753906	1194.421142578125	-607.6083374023438	248.3188323974609	1178.44970703125	-560.3070068359375	443.6053161621094	954.6048583984375	-540.6148071289062	369.6354370117188	915.9906616210938	-575.5052490234375	348.931396484375	1080.6865234375	-604.3682250976562	475.2779235839844	764.1172485351562	-505.7286071777344	407.4827880859375	845.2074584960938	-568.505859375	472.2947387695312	868.6404418945312	-546.0054931640625	249.8912506103516	1575.855834960938	-181.7536163330078	228.0906066894531	1504.534790039062	-116.7105102539062	215.8476867675781	1210.00390625	-86.26901245117188	215.6276397705078	1205.55615234375	-182.7127075195312	376.1122131347656	979.0986328125	-80.77618408203125	301.9992065429688	956.3155517578125	-54.85116195678711	242.31494140625	1138.16552734375	-67.04618835449219	420.1684875488281	787.77294921875	-87.89642333984375	414.8927917480469	874.6993408203125	-68.23739624023438	347.6555786132812	861.2191162109375	-43.38246536254883	232.5460662841797	1745.658081054688	-287.1562194824219	382.9746704101562	1832.729614257812	-423.8124084472656	381.7494201660156	1842.35546875	-294.5697021484375	223.5478668212891	1738.960083007812	-422.5108642578125	282.5796508789062	1017.511169433594	-511.2521362304688	299.3150024414062	1012.439758300781	-146.3863067626953	379.5941772460938	1084.551147460938	-198.8479156494141	386.5519409179688	1081.47705078125	-463.5702209472656	342.2095642089844	507.3486633300781	-467.8521423339844	314.8534545898438	656.8328247070312	-498.6822814941406	1.583929419517517	93.60173797607422	-488.6541442871094	141.2702026367188	317.8343505859375	-507.671142578125	200.3849945068359	35.52404403686523	-397.2924194335938	125.5849990844727	53.71732711791992	-378.1610412597656	110.2982406616211	36.89350509643555	-491.7730712890625	-63.64499282836914	137.964111328125	-438.528564453125	429.9949645996094	541.2023315429688	-174.1454772949219	365.2521667480469	810.6538696289062	-145.0251617431641	473.5198364257812	26.96754837036133	-199.5139007568359	443.2221069335938	407.96826171875	-163.1287689208984	705.7765502929688	37.36408996582031	-257.7157287597656	643.947265625	34.256103515625	-296.0548400878906	608.4798583984375	37.50041580200195	-178.8917694091797	416.3007202148438	32.04965209960938	-248.8730010986328	
205	2.04	164.2404479980469	1101.3798828125	-273.5371398925781	172.7198791503906	1105.29931640625	-409.585205078125	162.34423828125	1145.34228515625	-345.9847412109375	400.6344604492188	1336.843017578125	-334.3245544433594	142.9351959228516	1300.877685546875	-351.5689697265625	201.8030090332031	1588.934936523438	-371.7644653320312	376.3544006347656	1475.273071289062	-343.7113647460938	131.641357421875	1412.276245117188	-281.8412780761719	203.3081359863281	1566.12646484375	-473.5384826660156	296.6004638671875	1545.379028320312	-530.9443359375	284.7345275878906	1411.608520507812	-597.0553588867188	314.0768737792969	1192.931030273438	-609.7086791992188	241.4238128662109	1176.965087890625	-562.8854370117188	436.8980407714844	953.4186401367188	-541.5859985351562	363.2486267089844	914.623046875	-576.8987426757812	342.4703979492188	1079.226928710938	-606.1334838867188	468.7325134277344	763.0243530273438	-506.2143859863281	401.1860656738281	843.9140625	-569.5408325195312	465.7123413085938	867.3956909179688	-546.6233520507812	241.6014251708984	1574.796020507812	-184.3376159667969	219.4131774902344	1503.505493164062	-119.4124374389648	206.4237518310547	1208.996215820312	-89.00516510009766	206.9656524658203	1204.443725585938	-185.4351806640625	366.3520202636719	977.947509765625	-82.06707763671875	292.0415954589844	955.2859497070312	-56.60136032104492	232.6367645263672	1137.140991210938	-69.51105499267578	410.2025146484375	786.5616455078125	-88.78633117675781	404.9293823242188	873.520751953125	-69.21701812744141	337.5108947753906	860.1403198242188	-44.79010391235352	224.9768676757812	1744.29638671875	-289.6094360351562	376.1910095214844	1831.30322265625	-425.8101806640625	374.618896484375	1840.86376953125	-296.5819091796875	216.5984344482422	1737.7958984375	-425.0248413085938	273.7533874511719	1016.35546875	-513.0277709960938	288.9985656738281	1010.878540039062	-147.9848022460938	369.3432312011719	1083.192626953125	-200.2904510498047	377.8592224121094	1079.932006835938	-465.05615234375	329.8734741210938	506.3397216796875	-467.0509643554688	303.9893188476562	655.6260375976562	-498.9580078125	-3.140815734863281	87.76015472412109	-486.3512268066406	132.1753540039062	313.1151428222656	-506.4706115722656	199.9724884033203	35.9452018737793	-396.8245239257812	123.62744140625	52.30423736572266	-377.0490417480469	108.4729232788086	36.55459594726562	-490.8741760253906	-70.05252838134766	129.0783538818359	-435.7928161621094	423.5868530273438	541.1566772460938	-174.1400909423828	356.287841796875	809.7529907226562	-145.9669952392578	473.6052551269531	27.05294990539551	-198.9762878417969	437.8150024414062	408.2305603027344	-162.7156066894531	705.6134643554688	38.12392044067383	-256.8818359375	643.9483032226562	36.08349609375	-295.5086669921875	608.6453247070312	37.3720817565918	-178.5006713867188	416.4270629882812	32.48520278930664	-248.3948669433594	
